<svg width="585" height="566" viewBox="0 0 585 566" fill="none" xmlns="http://www.w3.org/2000/svg">
<path fill-rule="evenodd" clip-rule="evenodd" d="M227.552 318.96C240.592 315.175 250.196 315.96 257.383 321.136C272.193 331.803 276.511 360.717 270.174 422.374C283.288 367.134 295.232 344.294 309.927 341.632C318.19 340.143 326.93 345.018 337.317 357.415C332.515 343.833 332.787 334.866 337.776 329.151C347.668 317.818 376.123 321.106 437.337 342.863C388.139 318.259 369.52 302.318 371.177 288.965C372.265 280.192 381.961 273.25 402.802 267.185C379.509 267.865 368.035 264.366 364.779 256.503C360.209 245.456 373.38 227.303 412.236 194.285C366.008 223.901 348.986 226.824 340.44 219.994C333.168 214.187 333.022 200.435 340.729 175.434C325.572 201.443 313.167 212.341 301.043 211.451C287.408 210.439 274.714 194.186 260.243 157.028C271.211 206.484 269.477 220.229 262.379 223.77C257.34 226.303 250.073 223.645 234.297 206.65C241.987 222.081 243.08 232.874 238.195 240.535C229.391 254.342 202.12 257.089 143.099 247.769C210.455 266.912 236.665 281.311 238.864 297.346C239.822 304.308 236.134 311.347 227.217 319.057L227.552 318.96ZM253.085 529.161C252.72 529.267 252.323 529.295 251.923 529.226C250.903 529.052 250.125 528.307 249.855 527.377C249.749 527.011 249.72 526.614 249.791 526.213C268.959 414.04 276.41 341.339 254.362 325.503C244.451 318.383 227.931 321.761 200.785 336.467C199.512 337.155 197.936 336.682 197.25 335.413C197.158 335.244 197.088 335.069 197.037 334.893C196.702 333.74 197.202 332.469 198.3 331.873C223.72 318.106 234.974 307.409 233.716 298.22C230.616 275.58 152.953 253.401 28.6436 224.955C27.6864 224.735 26.9749 224.014 26.7195 223.134C26.6001 222.723 26.5787 222.275 26.682 221.826C26.9999 220.424 28.3995 219.539 29.8031 219.865C142.708 245.7 220.612 258.665 233.862 237.957C240.747 227.196 230.846 205.141 202.713 168.548C202.508 168.281 202.363 167.986 202.275 167.683C201.982 166.683 202.31 165.56 203.188 164.887C204.327 164.012 205.965 164.222 206.845 165.361C236.559 204.01 254.493 222.209 260.147 219.341C272.147 213.363 244.376 112.369 232.518 69.2421C232.137 67.8521 232.961 66.3405 234.343 66.0343C235.721 65.6535 237.144 66.4585 237.539 67.8284L237.548 67.861C257.069 138.851 278.333 204.775 301.563 206.478C317.009 207.595 335.959 180.741 362.869 119.325C363.451 118.007 364.987 117.406 366.309 117.985C367.044 118.31 367.556 118.933 367.764 119.65C367.929 120.217 367.904 120.844 367.65 121.426C351.805 157.583 332.102 206.736 343.861 216.107C358.995 228.169 429.102 179.085 495.682 129.477C496.832 128.619 498.467 128.857 499.33 130.015C499.522 130.272 499.658 130.553 499.742 130.844C500.038 131.862 499.694 132.998 498.796 133.666C431.107 184.101 362.846 237.91 369.772 254.635C374.892 266.997 423.047 261.462 458.826 256.224C460.13 256.03 461.355 256.844 461.71 258.079C461.743 258.191 461.769 258.309 461.785 258.429C461.997 259.852 461.059 261.188 459.583 261.388C424.806 266.484 378.354 274.959 376.507 289.701C373.898 310.558 456.259 348.027 545.652 385.409C546.409 385.727 546.94 386.359 547.154 387.093C547.314 387.645 547.292 388.252 547.056 388.824C546.502 390.153 544.977 390.784 543.645 390.227C432.81 343.878 356.053 316.333 341.793 332.65C335.28 340.093 340.759 358.195 359.04 389.623C359.15 389.815 359.234 390.01 359.293 390.214C359.618 391.334 359.153 392.576 358.099 393.192C356.85 393.913 355.26 393.494 354.531 392.248C335.394 359.347 321.533 344.915 310.913 346.833C289.408 350.786 272.941 421.707 254.93 527.095C254.758 528.113 254.015 528.891 253.085 529.161Z" fill="#F7E32D"/>
</svg>
